{"title":"Love Child S03E04 1080P WEB-DL AAC2 0 H 264","uid":15357430,"size":1673626552,"categoryP":"video","categoryS":"hd___tv_shows","magnet":"?xt=urn:btih:e99023df8b2124465b7a5ebbf1d42c20d29b2e21&amp;dn=Love+Child+S03E04+1080P+WEB-DL+AAC2+0+H+264&amp;tr=udp%3A%2F%2Ftracker.leechers-paradise.org%3A6969&amp;tr=udp%3A%2F%2Fzer0day.ch%3A1337&amp;tr=udp%3A%2F%2Fopen.demonii.com%3A1337&amp;tr=udp%3A%2F%2Ftracker.coppersurfer.tk%3A6969&amp;tr=udp%3A%2F%2Fexodus.desync.com%3A6969","seeders":1,"leechers":0,"uploader":"jmanwf","files":1,"time":1468988000,"description":"Description\r\nAs Joan (Jessica Marias) struggles to admit her infertility to Jim (Matthew Le Nevez), Annie (Gracie Gilbert) faces the death of her father (David Whitney), but not before he encourages her to go to Vietnam as an entertainer.\r\n\r\n\r\nVideo\r\nID : 2\r\nFormat : AVC\r\nFormat/Info : Advanced Video Codec\r\nFormat profile :   \r\nFormat settings, CABAC : Yes\r\nFormat settings, ReFrames : 4 frames\r\nCodec ID : avc1\r\nCodec ID/Info : Advanced Video Coding\r\nDuration : 43mn 26s\r\nBit rate : 5 005 Kbps\r\nWidth : 1 912 pixels\r\nHeight : 1 072 pixels\r\nDisplay aspect ratio : 16:9\r\nFrame rate mode : Constant\r\nFrame rate : 25.000 fps\r\nColor space : YUV\r\nChroma subsampling : 4:2:0\r\nBit depth : 8 bits\r\nScan type : Progressive\r\nBits/(Pixel*Frame) : 0.098\r\nStream size : 1.52 GiB (97%)\r\nLanguage : English\r\nEncoded date : UTC 2016-07-12 05:49:56\r\nTagged date : UTC 2016-07-12 05:51:21\r\nColor range : Limited\r\nColor primaries : BT.709\r\nTransfer characteristics : BT.709\r\nMatrix coefficients : BT.709\r\n\r\nAudio\r\nID : 1\r\nFormat : AAC\r\nFormat/Info : Advanced Audio Codec\r\nFormat profile : LC\r\nCodec ID : 40\r\nDuration : 43mn 26s\r\nDuration_LastFrame : -3ms\r\nBit rate mode : Variable\r\nBit rate : 128 Kbps\r\nMaximum bit rate : 203 Kbps\r\nChannel(s) : 2 channels\r\nChannel positions : Front: L R\r\nSampling rate : 48.0 KHz\r\nFrame rate : 46.875 fps (1024 spf)\r\nCompression mode : Lossy\r\nStream size : 39.7 MiB (2%)\r\nLanguage : English\r\nDefault : Yes\r\nAlternate group : 1\r\nEncoded date : UTC 2016-07-12 05:46:59\r\nTagged date : UTC 2016-07-12 05:49:55","torrent":{"xt":"urn:btih:e99023df8b2124465b7a5ebbf1d42c20d29b2e21","amp;dn":"Love+Child+S03E04+1080P+WEB-DL+AAC2+0+H+264","amp;tr":["udp%3A%2F%2Ftracker.leechers-paradise.org%3A6969","udp%3A%2F%2Fzer0day.ch%3A1337","udp%3A%2F%2Fopen.demonii.com%3A1337","udp%3A%2F%2Ftracker.coppersurfer.tk%3A6969","udp%3A%2F%2Fexodus.desync.com%3A6969"],"infoHash":"e99023df8b2124465b7a5ebbf1d42c20d29b2e21","infoHashBuffer":{"type":"Buffer","data":[233,144,35,223,139,33,36,70,91,122,94,187,241,212,44,32,210,155,46,33]},"announce":[],"urlList":[]}}